<?xml version="1.0" encoding="UTF-8" standalone="no"?>
<!DOCTYPE svg PUBLIC "-//W3C//DTD SVG 1.1//EN" "http://www.w3.org/Graphics/SVG/1.1/DTD/svg11.dtd">
<svg width="100%" height="100%" viewBox="0 0 1024 1024" version="1.1" xmlns="http://www.w3.org/2000/svg" xmlns:xlink="http://www.w3.org/1999/xlink" xml:space="preserve" xmlns:serif="http://www.serif.com/" style="fill-rule:evenodd;clip-rule:evenodd;stroke-linejoin:round;stroke-miterlimit:2;">
    <g id="note">
        <path id="note1" serif:id="note" d="M512,590.422L512,357.321C512,357.321 525.386,364.588 531.684,368.849C539.118,373.879 548.51,381.006 556.601,387.5C565.228,394.423 575.405,403.006 583.445,410.386C590.876,417.207 598.688,425.082 604.842,431.783C610.341,437.772 616.178,443.996 620.367,450.596C624.457,457.04 628.111,463.98 629.976,471.381C631.998,479.402 632.839,490.676 632.497,498.723C632.194,505.861 630.05,513.004 627.927,519.664C625.832,526.237 622.913,533.545 619.759,538.681C616.975,543.214 612.722,547.311 609.005,550.475C605.551,553.416 598.364,558.989 597.454,557.669C596.543,556.349 601.801,547.699 603.543,542.554C605.526,536.697 608.637,529.441 609.352,522.528C610.081,515.471 609.402,507.138 607.918,500.217C606.477,493.497 603.817,486.548 600.447,481.002C597.16,475.594 592.346,471.095 587.694,466.939C583.056,462.796 577.438,459.006 572.534,456.065C568.02,453.358 563.058,451.478 558.27,449.292C553.317,447.031 542.817,442.497 542.817,442.497C542.817,442.497 544.331,595.678 542.817,632.183C542.392,642.413 537.519,653.209 533.731,661.524C530.322,669.007 524.83,676.267 520.087,682.075C515.746,687.39 510.959,692.531 505.27,696.37C499.196,700.468 491.199,704.089 483.641,706.665C475.852,709.32 466.731,711.391 458.535,712.299C450.56,713.183 442.065,713.812 434.466,712.113C426.867,710.414 419.438,706.601 412.943,702.104C406.448,697.607 399.654,691.409 395.494,685.128C391.44,679.007 389.318,671.346 387.983,664.423C386.667,657.602 386.168,650.412 387.481,643.591C388.863,636.413 392.557,627.602 396.274,621.357C399.746,615.525 404.929,610.74 409.784,606.122C414.612,601.528 419.644,596.997 425.403,593.644C431.605,590.034 439.659,586.416 446.995,584.461C450.676,583.48 454.484,582.934 458.307,582.586C462.031,582.247 465.895,581.365 469.543,581.185C472.969,581.017 476.32,581.508 479.779,581.444C483.69,581.373 487.578,581.53 491.345,582.282C498.442,583.7 512,590.422 512,590.422Z" style="fill:rgb(255,193,7);"/>
        <g transform="matrix(1.27962,0,0,1.27962,-167.623,-103.704)">
            <circle cx="559.664" cy="321.157" r="30.392" style="fill:rgb(255,193,7);"/>
        </g>
    </g>
</svg>
