<?xml version="1.0" encoding="UTF-8" standalone="no"?>
<!DOCTYPE svg PUBLIC "-//W3C//DTD SVG 1.1//EN" "http://www.w3.org/Graphics/SVG/1.1/DTD/svg11.dtd">
<svg width="100%" height="100%" viewBox="0 0 1024 1024" version="1.1" xmlns="http://www.w3.org/2000/svg" xmlns:xlink="http://www.w3.org/1999/xlink" xml:space="preserve" xmlns:serif="http://www.serif.com/" style="fill-rule:evenodd;clip-rule:evenodd;stroke-linejoin:round;stroke-miterlimit:2;">
    <g id="staff">
        <g transform="matrix(1.121,0,0,1.121,-230.721,-227.236)">
            <path d="M662.553,512C745.645,512 813.105,579.46 813.105,662.553C813.105,745.645 745.645,813.105 662.553,813.105C579.46,813.105 512,745.645 512,662.553C512,579.46 579.46,512 662.553,512ZM662.553,528.057C588.323,528.057 528.057,588.323 528.057,662.553C528.057,736.783 588.323,797.048 662.553,797.048C736.783,797.048 797.048,736.783 797.048,662.553C797.048,588.323 736.783,528.057 662.553,528.057Z" style="fill:white;"/>
        </g>
        <g transform="matrix(1.56461,0,0,1.56461,-524.635,-521.15)">
            <path d="M662.553,512C745.645,512 813.105,579.46 813.105,662.553C813.105,745.645 745.645,813.105 662.553,813.105C579.46,813.105 512,745.645 512,662.553C512,579.46 579.46,512 662.553,512ZM662.553,523.504C585.81,523.504 523.504,585.81 523.504,662.553C523.504,739.295 585.81,801.601 662.553,801.601C739.295,801.601 801.601,739.295 801.601,662.553C801.601,585.81 739.295,523.504 662.553,523.504Z" style="fill:white;"/>
        </g>
        <g transform="matrix(2.00823,0,0,2.00823,-818.555,-818.555)">
            <path d="M662.553,512C745.645,512 813.105,579.46 813.105,662.553C813.105,745.645 745.645,813.105 662.553,813.105C579.46,813.105 512,745.645 512,662.553C512,579.46 579.46,512 662.553,512ZM662.553,520.963C584.407,520.963 520.963,584.407 520.963,662.553C520.963,740.698 584.407,804.142 662.553,804.142C740.698,804.142 804.142,740.698 804.142,662.553C804.142,584.407 740.698,520.963 662.553,520.963Z" style="fill:white;"/>
        </g>
    </g>
</svg>
